# xmcd
#
# Track frame offsets:
#	150
#	13176
#	30434
#	46341
#	63107
#	79237
#	93556
#	105759
#	119211
#	129543
#
# Disc length: 1884 seconds
# Revision: 0
# Processed by: cddbd v1.5.2PL0 Copyright (c) Steve Scherf et al.
# Submitted via: dBpowerAMP V12.0
#
DISCID=7b075a0a
DTITLE=Marli Humphrey - Keep Walkin' On
DYEAR=2016
DGENRE=Gospel
TTITLE0=Uncloudy Day
TTITLE1=Precious Memories
TTITLE2=More Daddy's Like Andy
TTITLE3=Until The End Of Time
TTITLE4=Peace In The Valley
TTITLE5=Dirt On His Wings
TTITLE6=I'll Fly Away
TTITLE7=The Dearest Friend
TTITLE8=Keep Walkin' On
TTITLE9=Amazing Grace
EXTD=
EXTT0=
EXTT1=
EXTT2=
EXTT3=
EXTT4=
EXTT5=
EXTT6=
EXTT7=
EXTT8=
EXTT9=
PLAYORDER=
